<?xml version="1.0" standalone="no"?>
<!DOCTYPE svg PUBLIC "-//W3C//DTD SVG 20010904//EN"
 "http://www.w3.org/TR/2001/REC-SVG-20010904/DTD/svg10.dtd">
<svg xmlns="http://www.w3.org/2000/svg"
     width="700.000000pt" height="700.000000pt" viewBox="0 0 700.000000 700.000000"
     preserveAspectRatio="xMidYMid meet">
<metadata>
Created by potrace 1.11, written by Peter Selinger 2001-2013
</metadata>
<g transform="translate(0.000000,700.000000) scale(0.100000,-0.100000)"
fill="#000000" stroke="none">
<path d="M3215 6989 c-712 -58 -1385 -331 -1944 -786 -134 -110 -361 -336
-474 -474 -1029 -1258 -1065 -3051 -88 -4344 535 -707 1334 -1192 2201 -1334
231 -38 323 -45 590 -45 336 0 555 25 853 100 775 193 1458 645 1939 1281 613
813 839 1826 632 2841 -109 532 -364 1063 -721 1501 -112 136 -338 362 -474
474 -641 523 -1432 803 -2253 796 -89 -1 -206 -5 -261 -10z m1660 -1451 c-22
-213 -76 -372 -178 -523 -57 -83 -193 -222 -266 -270 -33 -22 -61 -43 -61 -47
0 -5 21 -36 46 -70 65 -88 148 -265 178 -379 95 -369 35 -753 -164 -1050 -55
-81 -216 -243 -296 -296 -132 -89 -296 -159 -469 -199 -111 -26 -423 -27 -541
-2 -385 84 -699 324 -849 651 -159 346 -153 772 16 1109 162 326 474 555 862
634 62 13 165 19 417 24 220 5 349 11 375 19 109 34 217 116 277 211 35 54 68
158 68 211 l0 39 295 0 296 0 -6 -62z m-2187 -3316 c76 -60 250 -149 362 -186
202 -66 493 -75 700 -21 195 50 401 159 528 279 l53 50 205 -205 205 -204 -64
-60 c-267 -251 -653 -421 -1049 -464 -516 -57 -1066 125 -1442 476 l-48 46
203 203 203 203 38 -32 c21 -18 69 -56 106 -85z"/>
<path d="M3322 4539 c-135 -15 -282 -93 -371 -196 -51 -59 -115 -186 -138
-273 -24 -90 -24 -292 0 -380 25 -95 89 -217 146 -281 65 -73 161 -135 258
-166 114 -37 266 -37 377 1 149 51 257 146 326 290 56 116 73 197 73 346 0
150 -17 230 -74 348 -109 225 -330 340 -597 311z"/>
</g>
</svg>
